<?xml version="1.0" encoding="UTF-8"?>
<svg width="100px" height="15px" viewBox="0 0 100 15" version="1.1" xmlns="http://www.w3.org/2000/svg" xmlns:xlink="http://www.w3.org/1999/xlink">
    <!-- Generator: Sketch 51.3 (57544) - http://www.bohemiancoding.com/sketch -->
    <defs></defs>
    <g id="footer_logo_svg" stroke="none" stroke-width="1" fill="none" fill-rule="evenodd">
        <g id="footer_logo_svg2" transform="translate(-683.000000, -856.000000)" fill-rule="nonzero">
            <g id="footer_logo_svg3" transform="translate(683.000000, 856.000000)">
                <path d="M16.0736515,0.104166667 C14.80502,0.102581543 13.5576547,0.43133439 12.4533195,1.05833333 L14.436722,3.04895833 C16.6807307,2.21691326 19.1899355,3.20052364 20.2790762,5.33916605 C21.368217,7.47780847 20.6935074,10.0964227 18.7081037,11.4362658 C16.7226999,12.7761089 14.0532924,12.4142608 12.4927386,10.59375 L12.4854772,10.6010417 L8.46576763,6.56666667 C7.94417644,6.08664211 7.13862994,6.10425765 6.63834368,6.60662844 C6.13805741,7.10899923 6.12051496,7.91790218 6.59854772,8.44166667 L10.6441909,12.5041667 L10.6732365,12.53125 C12.9639327,15.0095807 16.6367443,15.6123015 19.5939538,13.9951698 C22.5511633,12.3780382 24.0396135,8.95291343 23.2091797,5.67604737 C22.3787458,2.39918131 19.440927,0.105142889 16.0736515,0.104166667 Z" id="Shape" fill="#C7C9CC"></path>
                <path d="M16.8568465,6.55729167 L12.8112033,2.49479167 C12.7987552,2.48229167 12.7852697,2.47083333 12.7717842,2.459375 C10.1539022,-0.365738221 5.81291378,-0.694827825 2.80231608,1.70359129 C-0.208281631,4.1020104 -0.876455354,8.42169302 1.26779536,11.6241288 C3.41204607,14.8265646 7.64791647,15.8352326 10.9958506,13.940625 L9.01141079,11.95 C6.76730927,12.7816246 4.25833539,11.7976357 3.1695309,9.65888603 C2.0807264,7.52013633 2.75575379,4.90168559 4.74126066,3.56210087 C6.72676753,2.22251614 9.39606263,2.58461441 10.9564315,4.40520833 L10.9636929,4.39791667 L14.9896266,8.43333333 C15.3179187,8.793032 15.8162943,8.94282632 16.2874022,8.82339937 C16.7585101,8.70397242 17.1263626,8.33458727 17.245294,7.86151641 C17.3642254,7.38844555 17.2150526,6.88799332 16.8568465,6.55833333 L16.8568465,6.55729167 Z" id="Shape" fill="#D4D7DA"></path>
                <path d="M48.9491701,14.4791667 L50.1939834,14.7916667 L51.2313278,9.58333333 L49.9948133,9.27083333 L48.9491701,14.4791667 Z M48.7748963,1.075 L50.5622407,3.27083333 L51.4325726,2.465625 L49.6452282,0.269791667 L48.7748963,1.075 Z M63.0570539,0.103125 L54.253112,0.103125 C52.593361,0.103125 52.593361,1.76979167 52.593361,1.76979167 L52.593361,14.790625 L53.8381743,14.790625 L53.8381743,1.87395833 C53.8381743,1.87395833 53.8381743,1.24895833 54.4605809,1.24895833 L63.0570539,1.24895833 L63.0570539,0.103125 Z M91.5954357,0.103125 L90.3506224,0.103125 L90.3506224,2.18645833 L91.5954357,2.18645833 L91.5954357,0.103125 Z M43.56639,0.103125 L39.313278,0.103125 C37.653527,0.103125 37.653527,1.76979167 37.653527,1.76979167 L37.653527,14.790625 L38.8983402,14.790625 L38.8983402,10.234375 L43.56639,10.234375 L43.56639,8.984375 L38.8983402,8.984375 L38.8983402,5.521875 L43.56639,5.521875 L43.56639,4.271875 L38.8983402,4.271875 L38.8983402,1.98020833 C38.8983402,1.98020833 38.8983402,1.35520833 39.5134855,1.35520833 L43.3516598,1.35520833 C43.9740664,1.35520833 43.9740664,1.98020833 43.9740664,1.98020833 L43.9740664,4.271875 L43.9740664,5.521875 L43.9740664,8.984375 L43.9740664,14.7916667 L45.2188808,14.7916667 L45.2188797,1.75729167 C45.2188797,1.75729167 45.2282158,0.105208333 43.56639,0.105208333 L43.56639,0.103125 Z M34.6452282,0.728125 L32.1556017,0.728125 C30.4958506,0.728125 30.4958506,2.39479167 30.4958506,2.39479167 L30.4958506,12.4916667 C30.4958506,12.4916667 30.4958506,14.1583333 32.1556017,14.1583333 L34.6452282,14.1583333 C36.3049793,14.1583333 36.3049793,12.4916667 36.3049793,12.4916667 L36.3049793,2.39895833 C36.3049793,2.39895833 36.3070539,0.730208333 34.6473029,0.730208333 L34.6452282,0.728125 Z M35.060166,6.56145833 L35.060166,8.228125 C35.060166,9.009375 35.060166,11.75 35.060166,12.2854167 C35.060166,12.9104167 34.4377593,12.9104167 34.4377593,12.9104167 L32.3630705,12.9104167 C31.7406639,12.9104167 31.7406639,12.2854167 31.7406639,12.2854167 L31.7406639,8.01458333 L34.6452282,8.01458333 L34.6452282,6.76458333 L31.7406639,6.76458333 L31.7406639,2.61354167 C31.7406639,2.61354167 31.7406639,1.98125 32.3630705,1.98125 L34.4377593,1.98125 C35.060166,1.98125 35.060166,2.60625 35.060166,2.60625 L35.060166,6.56458333 L35.060166,6.56145833 Z M79.9636929,0.936458333 L67.7562241,0.936458333 L67.7562241,2.18645833 L79.966805,2.18645833 L79.9636929,0.936458333 Z M55.0809129,14.2697917 L56.0321577,14.790625 C57.1556017,12.915625 57.3630705,10.3114583 57.3630705,10.3114583 L56.2219917,10.103125 C56.2219917,10.103125 55.8091286,12.9166667 55.0829876,14.2708333 L55.0809129,14.2697917 Z M86.280083,0.415625 L85.1390041,0.103125 L84.2302905,3.43645833 L89.313278,3.43645833 L89.313278,2.18645833 L85.7863071,2.18645833 L86.280083,0.415625 Z M99.996888,2.70729167 L99.996888,1.45729167 L95.4107884,1.45729167 L95.6390041,0.311458333 L94.3941909,0.103125 L94.0829876,1.45729167 L92.9419087,1.45729167 L92.9419087,2.70729167 L93.8547718,2.70729167 L92.9419087,7.49895833 L96.1576763,7.49895833 L96.1576763,9.58229167 L92.9419087,9.58229167 L92.9419087,10.8322917 L96.1576763,10.8322917 L96.1576763,13.0197917 L97.4024896,13.0197917 L97.4024896,10.8322917 L99.9958506,10.8322917 L99.9958506,9.58229167 L97.4024896,9.58229167 L97.4024896,7.49895833 L99.9958506,7.49895833 L99.9958506,6.24895833 L97.4024896,6.24895833 L97.4024896,4.06145833 L96.1576763,4.06145833 L96.1576763,6.24895833 L94.4979253,6.24895833 L95.2033195,2.70729167 L99.996888,2.70729167 Z M84.2292531,6.353125 L85.8890041,6.353125 L85.8890041,8.43645833 L84.2292531,8.43645833 L84.2292531,9.68645833 L85.8890041,9.68645833 L85.8890041,13.228125 C85.8890041,13.228125 85.8890041,14.8947917 87.5487552,14.8947917 L89.3122407,14.8947917 L89.3122407,13.6447917 L87.7562241,13.6447917 C87.1338174,13.6447917 87.1338174,13.0197917 87.1338174,13.0197917 L87.1338174,9.68645833 L89.3122407,9.68645833 L89.3122407,8.43645833 L87.1338174,8.43645833 L87.1338174,6.353125 L89.3122407,6.353125 L89.3122407,5.103125 L84.2292531,5.103125 L84.2292531,6.353125 Z M91.5943983,13.0197917 L91.5943983,3.43645833 L90.3495851,3.43645833 L90.3495851,13.228125 C90.3495851,13.228125 90.3495851,14.8947917 92.0093361,14.8947917 L99.996888,14.8947917 L99.996888,13.6447917 L92.216805,13.6447917 C91.5943983,13.6458333 91.5943983,13.0208333 91.5943983,13.0208333 L91.5943983,13.0197917 Z M63.0674274,8.01979167 L63.0674274,4.06145833 C63.0674274,4.06145833 63.0674274,2.81145833 61.8226141,2.81145833 L59.8516598,2.81145833 L59.8516598,1.665625 L58.6068465,1.665625 L58.6068465,2.81145833 L56.3246888,2.81145833 C55.0798755,2.81145833 55.0798755,4.06145833 55.0798755,4.06145833 L55.0798755,8.01979167 C55.0798755,8.01979167 55.0798755,9.26979167 56.3153527,9.26979167 L58.6068465,9.26979167 L58.6068465,14.790625 L59.8516598,14.790625 L59.8516598,9.26979167 L61.8298755,9.26979167 C63.0705394,9.27083333 63.0705394,8.02083333 63.0705394,8.02083333 L63.0674274,8.01979167 Z M61.6151452,8.01979167 L56.6358921,8.01979167 C56.5528426,8.02151172 56.4726877,7.98914035 56.4139503,7.93015824 C56.3552129,7.87117613 56.3229759,7.79068723 56.3246888,7.70729167 L56.3246888,6.665625 L61.5114108,6.665625 L61.5114108,5.415625 L56.3246888,5.415625 L56.3246888,4.37395833 C56.3229759,4.29056277 56.3552129,4.21007387 56.4139503,4.15109176 C56.4726877,4.09210965 56.5528426,4.05973828 56.6358921,4.06145833 L61.6151452,4.06145833 C61.6981948,4.05973828 61.7783497,4.09210965 61.837087,4.15109176 C61.8958244,4.21007387 61.9280615,4.29056277 61.9263485,4.37395833 L61.9263485,7.70729167 C61.9283222,7.7903151 61.8966337,7.87058368 61.8385467,7.92969832 C61.7804597,7.98881295 61.7009552,8.0217044 61.6182573,8.02083333 L61.6151452,8.01979167 Z M67.0093361,6.978125 L69.093361,6.978125 L68.3392116,12.290625 C68.3392116,12.290625 67.8205394,14.790625 70.6213693,14.790625 L77.590249,14.790625 C79.9761411,14.790625 79.9761411,12.296875 79.9761411,12.296875 L79.9761411,9.0625 L78.7313278,9.0625 L78.7313278,12.2916667 C78.7313278,12.2916667 78.7313278,13.5416667 77.4865145,13.5416667 L70.6213693,13.5416667 C69.376556,13.5416667 69.5591286,12.2739583 69.5591286,12.2739583 L70.3381743,6.97916667 L80.7022822,6.97916667 L80.7022822,5.72916667 L67.0093361,5.72916667 L67.0093361,6.978125 Z M61.4076763,10.3114583 L62.030083,14.790625 L63.2748963,14.5822917 L62.6524896,10.103125 L61.4076763,10.3114583 Z M48.7334025,5.24270833 L50.5062241,7.43020833 L51.3672199,6.62916667 L49.5943983,4.44166667 L48.7334025,5.24270833 Z" id="Shape" fill="#C7C9CC"></path>
            </g>
        </g>
    </g>
</svg>
