<?xml version="1.0" encoding="utf-8"?>
<!-- Generator: Adobe Illustrator 21.0.0, SVG Export Plug-In . SVG Version: 6.00 Build 0)  -->
<svg version="1.1" id="head_logo" xmlns="http://www.w3.org/2000/svg" xmlns:xlink="http://www.w3.org/1999/xlink" x="0px" y="0px"
	 viewBox="0 0 130.4 20.2" style="enable-background:new 0 0 130.4 20.2;" xml:space="preserve">
<style type="text/css">
	.st0{fill:#1F93FF;}
	.st1{fill:#02CCFF;}
	.st2{fill:#303036;}
</style>
<desc>Created with Sketch.</desc>
<g id="logo_svg_1">
	<g id="logo_svg_2" transform="translate(-388.000000, -49.000000)">
		<g id="logo_svg_3" transform="translate(388.000000, 49.000000)">
			<path id="logo_svg_4" class="st0" d="M21.2,0.3c-1.6,0-3.3,0.4-4.7,1.3L19,4.2c2.9-1.1,6.2,0.2,7.6,3s0.5,6.3-2,8s-6,1.3-8-1.1l0,0
				l-5.2-5.3c-0.7-0.6-1.7-0.6-2.4,0.1s-0.7,1.7-0.1,2.4l5.2,5.4l0,0c3,3.3,7.7,4.1,11.6,1.9s5.8-6.6,4.7-11S25.5,0.3,21.2,0.3z"/>
			<path id="logo_svg_5" class="st1" d="M22.2,8.8l-5.2-5.4c0,0,0,0-0.1,0c-3.4-3.7-9-4.2-12.9-1s-4.8,8.9-2,13.1s8.3,5.6,12.6,3.1
				L12,16c-2.9,1.1-6.2-0.2-7.6-3s-0.5-6.3,2-8s6-1.3,8,1.1l0,0l5.2,5.3c0.4,0.5,1.1,0.7,1.7,0.5c0.6-0.2,1.1-0.6,1.2-1.3
				C22.8,9.9,22.6,9.3,22.2,8.8L22.2,8.8z"/>
			<path id="logo_svg_6" class="st2" d="M63.7,19.3l1.6,0.4l1.3-6.9l-1.6-0.4L63.7,19.3z M63.5,1.6l2.3,2.9l1.1-1.1l-2.3-2.9L63.5,1.6
				z M82,0.3H70.6c-2.1,0-2.1,2.2-2.1,2.2v17.2h1.6v-17c0,0,0-0.8,0.8-0.8H82V0.3z M119,0.3h-1.6v2.7h1.6V0.3z M56.8,0.3h-5.5
				c-2.1,0-2.1,2.2-2.1,2.2v17.2h1.6v-6h6V12h-6V7.5h6V5.8h-6v-3c0,0,0-0.8,0.8-0.8h5c0.8,0,0.8,0.8,0.8,0.8v3v1.6V12v7.7h1.6V2.5
				C58.9,2.5,58.9,0.3,56.8,0.3L56.8,0.3z M45.2,1.2H42c-2.1,0-2.1,2.2-2.1,2.2v13.3c0,0,0,2.2,2.1,2.2h3.2c2.1,0,2.1-2.2,2.1-2.2
				V3.4C47.4,3.4,47.4,1.2,45.2,1.2L45.2,1.2z M45.7,8.9v2.2c0,1,0,4.6,0,5.3c0,0.8-0.8,0.8-0.8,0.8h-2.7c-0.8,0-0.8-0.8-0.8-0.8
				v-5.6h3.8V9.1h-3.8V3.6c0,0,0-0.8,0.8-0.8h2.7c0.8,0,0.8,0.8,0.8,0.8V8.9L45.7,8.9z M103.9,1.4H88.1v1.6h15.8L103.9,1.4z
				 M71.7,19l1.2,0.7c1.5-2.5,1.7-5.9,1.7-5.9l-1.5-0.3C73.1,13.5,72.6,17.2,71.7,19L71.7,19z M112.1,0.7l-1.5-0.4l-1.2,4.4h6.6V3.1
				h-4.6L112.1,0.7z M129.8,3.8V2.1h-5.9l0.3-1.5l-1.6-0.3l-0.4,1.8h-1.5v1.6h1.2l-1.2,6.3h4.2v2.7h-4.2v1.6h4.2v2.9h1.6v-2.9h3.4
				v-1.6h-3.4v-2.7h3.4V8.4h-3.4V5.6h-1.6v2.9h-2.1l0.9-4.7H129.8z M109.4,8.6h2.1v2.7h-2.1V13h2.1v4.7c0,0,0,2.2,2.1,2.2h2.3v-1.6
				h-2c-0.8,0-0.8-0.8-0.8-0.8V13h2.8v-1.6h-2.8V8.6h2.8V6.9h-6.6V8.6z M118.9,17.4V4.7h-1.6v12.9c0,0,0,2.2,2.1,2.2h10.3v-1.6
				h-10.1C118.9,18.2,118.9,17.4,118.9,17.4L118.9,17.4z M82,10.8V5.6c0,0,0-1.6-1.6-1.6h-2.6V2.4h-1.6v1.5h-3
				c-1.6,0-1.6,1.6-1.6,1.6v5.2c0,0,0,1.6,1.6,1.6h3v7.3h1.6v-7.3h2.6C82,12.4,82,10.8,82,10.8L82,10.8z M80.1,10.8h-6.4
				c-0.1,0-0.2,0-0.3-0.1c-0.1-0.1-0.1-0.2-0.1-0.3V9H80V7.3h-6.7V6c0-0.1,0-0.2,0.1-0.3c0.1-0.1,0.2-0.1,0.3-0.1h6.4
				c0.1,0,0.2,0,0.3,0.1s0.1,0.2,0.1,0.3v4.4c0,0.1,0,0.2-0.1,0.3C80.3,10.7,80.2,10.8,80.1,10.8L80.1,10.8z M87.1,9.4h2.7l-1,7
				c0,0-0.7,3.3,3,3.3h9c3.1,0,3.1-3.3,3.1-3.3v-4.3h-1.6v4.3c0,0,0,1.6-1.6,1.6h-8.9c-1.6,0-1.4-1.7-1.4-1.7l1-7h13.4V7.8H87.1V9.4
				z M79.9,13.8l0.8,5.9l1.6-0.3l-0.8-5.9L79.9,13.8z M63.5,7.1l2.3,2.9l1.1-1.1l-2.3-2.9L63.5,7.1z"/>
		</g>
	</g>
</g>
</svg>
