<?xml version="1.0" standalone="no"?>
<!DOCTYPE svg PUBLIC "-//W3C//DTD SVG 1.1//EN" "http://www.w3.org/Graphics/SVG/1.1/DTD/svg11.dtd" >
<!--
2013-9-30: Created.
-->
<svg>
<metadata>
Created by iconfont
</metadata>
<defs>

<font id="iconfont-layout" horiz-adv-x="1024" >
  <font-face
    font-family="iconfont-layout"
    font-weight="500"
    font-stretch="normal"
    units-per-em="1024"
    ascent="896"
    descent="-128"
  />
    <missing-glyph />
    
    <glyph glyph-name="exit-full-screen" unicode="&#58928;" d="M762 583.6h211.6c9.6 0 17.4-7.8 17.4-17.4v-34.7c0-9.6-7.8-17.4-17.4-17.4h-313c-9.6 0-17.4 7.8-17.4 17.4V844c0 9.6 7.8 17.4 17.4 17.4h34.8c9.6 0 17.4-7.8 17.4-17.4v-211.3l257 256.5c6.8 6.8 17.8 6.8 24.6 0l24.6-24.5c6.8-6.8 6.8-17.8 0-24.5L762 583.6zM364.9-94.60000000000002H330c-9.6 0-17.5 7.8-17.5 17.4v212l-258-257.7c-6.8-6.8-17.9-6.8-24.7 0L5.1-98.20000000000005c-6.8 6.8-6.8 17.8 0 24.7l258.1 257.6H50.9c-9.6 0-17.5 7.8-17.5 17.4v34.9c0 9.6 7.8 17.4 17.5 17.4h314c9.6 0 17.5-7.8 17.5-17.4V-77.20000000000005c0-9.6-7.8-17.4-17.5-17.4z m0 608.8h-314c-9.6 0-17.5 7.8-17.5 17.4v34.9c0 9.6 7.8 17.4 17.5 17.4h212.2L5.1 841.6c-6.8 6.8-6.8 17.8 0 24.7L29.8 890.9c6.8 6.8 17.9 6.8 24.7 0l258.1-257.6V845.2c0 9.6 7.8 17.4 17.5 17.4H365c9.6 0 17.5-7.8 17.5-17.4v-313.5c-0.1-9.7-7.9-17.5-17.6-17.5z m295.7-260.4h313c9.6 0 17.4-7.8 17.4-17.4v-34.7c0-9.6-7.8-17.4-17.4-17.4H762l257-256.5c6.8-6.8 6.8-17.8 0-24.6l-24.6-24.6c-6.8-6.8-17.8-6.8-24.6 0l-257 256.6V-76c0-9.6-7.8-17.4-17.4-17.4h-34.8c-9.6 0-17.4 7.8-17.4 17.4V236.39999999999998c0 9.6 7.8 17.4 17.4 17.4z"  horiz-adv-x="1024" />

    
    <glyph glyph-name="full-screen" unicode="&#58884;" d="M171.666286 792.502857l271.506285-271.506286-69.412571-69.339428-270.262857 272.676571L0 620.836571V896h275.163429L171.666286 792.502857z m203.337143-475.794286l-271.506286-271.506285L0 148.699429v-275.163429h275.163429l-103.497143 103.497143 271.506285 271.433143-68.169142 68.242285zM747.300571 896l103.497143-103.497143L579.291429 520.996571l69.485714-69.339428 271.433143 271.433143 103.497143-103.424V896h-276.406858zM647.533714 316.708571l-69.485714-69.485714 271.579429-271.433143-103.497143-103.497143h276.333714v276.406858l-103.497143-103.497143L647.533714 316.708571z"  horiz-adv-x="1024" />

    
    <glyph glyph-name="left-o" unicode="&#58880;" d="M515.999 816.983C279.074 816.983 87.02 624.9300000000001 87.02 388.004c0-236.926 192.054-428.979 428.979-428.979 236.926 0 428.979 192.053 428.979 428.979C944.979 624.9300000000001 752.925 816.983 515.999 816.983zM515.999-0.51400000000001c-214.559 0-388.506 173.959-388.506 388.518 0 214.547 173.947 388.506 388.506 388.506 214.536 0 388.506-173.959 388.506-388.506C904.505 173.44500000000005 730.535-0.51400000000001 515.999-0.51400000000001zM582.584 532.405c-8.297 7.836-21.768 7.836-30.092 0l-138.065-130.14c-4.193-3.97-6.215-9.099-6.215-14.272 0-5.159 2.021-10.305 6.215-14.258L552.492 243.58000000000004c8.324-7.834 21.795-7.834 30.092 0 8.326 7.822 8.326 20.549 0 28.367L459.536 387.993l123.048 116.029C590.91 511.857 590.91 524.5550000000001 582.584 532.405z"  horiz-adv-x="1024" />

    
    <glyph glyph-name="arrow-down" unicode="&#58883;" d="M1024 107.72479999999996L1779.712 867.5328a96.8704 96.8704 0 0 0 137.4208 0 98.0992 98.0992 0 0 0 0-138.24L1092.608-99.32799999999997a96.8704 96.8704 0 0 0-137.216 0L130.8672 729.2927999999999a98.0992 98.0992 0 0 0 0 138.0352 96.8704 96.8704 0 0 0 137.216 0L1024 107.72479999999996z"  horiz-adv-x="2048" />

    
    <glyph glyph-name="online-service" unicode="&#58885;" d="M498.20691415 440.45975251h24.13790024v-24.13790024H498.20691415zM512-58.24000000000001a96 96 0 0 0-67.84 28.16l-128 128H128A96 96 0 0 0 32 192V704A96 96 0 0 0 128 800h768A96 96 0 0 0 992 704v-512a96 96 0 0 0-96-96h-192l-128-128a96 96 0 0 0-64-26.24zM128 736a32 32 0 0 1-32-32v-512a32 32 0 0 1 32-32h216.32l145.28-145.28a32 32 0 0 1 45.44 0l145.28 145.28H896a32 32 0 0 1 32 32V704a32 32 0 0 1-32 32zM768 448m-64 0a64 64 0 1 1 128 0 64 64 0 1 1-128 0ZM512 448m-64 0a64 64 0 1 1 128 0 64 64 0 1 1-128 0ZM256 448m-64 0a64 64 0 1 1 128 0 64 64 0 1 1-128 0Z"  horiz-adv-x="1024" />

    
    <glyph glyph-name="feedback" unicode="&#58886;" d="M896 832c12.8-12.8 12.8-32 0-44.8L620.8 512c-12.8-12.8-32-12.8-44.8 0-12.8 12.8-12.8 32 0 44.8L851.2 832c12.8 12.8 32 12.8 44.8 0zM288 448h192c19.2 0 32-12.8 32-32s-12.8-32-32-32h-192c-19.2 0-32 12.8-32 32s12.8 32 32 32zM288 256h384c19.2 0 32-12.8 32-32s-12.8-32-32-32h-384c-19.2 0-32 12.8-32 32s12.8 32 32 32zM768-96H192c-51.2 0-96 44.8-96 96V768c0 51.2 44.8 96 96 96h320c19.2 0 32-12.8 32-32s-12.8-32-32-32H192c-19.2 0-32-12.8-32-32v-768c0-19.2 12.8-32 32-32h576c19.2 0 32 12.8 32 32V441.6c0 19.2 12.8 32 32 32s32-12.8 32-32V0c0-51.2-44.8-96-96-96z"  horiz-adv-x="1024" />

    
    <glyph glyph-name="quit" unicode="&#58887;" d="M512-51.200000000000045c-243.2 0-435.2 192-435.2 435.2 0 147.2 76.8 281.6 192 364.8 12.8 12.8 32 6.4 51.2-6.4 12.8-12.8 6.4-38.4-6.4-44.8-108.8-70.4-172.8-192-172.8-313.6 0-204.8 166.4-371.2 371.2-371.2s371.2 166.4 371.2 371.2c0 121.6-57.6 243.2-166.4 307.2-19.2 12.8-25.6 32-12.8 51.2 12.8 12.8 32 19.2 44.8 6.4 121.6-83.2 192-217.6 192-364.8 6.4-243.2-185.6-435.2-428.8-435.2zM512 851.2c19.2 0 32-12.8 32-32v-403.2c0-19.2-12.8-32-32-32s-32 12.8-32 32V819.2c0 19.2 12.8 32 32 32z"  horiz-adv-x="1024" />

    
    <glyph glyph-name="lock" unicode="&#58888;" d="M896-64H128c-38.4 0-64 25.6-64 64V512c0 38.4 25.6 64 64 64h768c38.4 0 64-25.6 64-64v-512c0-38.4-25.6-64-64-64zM128 512v-512h768V512H128z m0 32V512v32zM704 512H320V640c0 108.8 83.2 192 192 192s192-83.2 192-192v-128zM384 576h256V640c0 70.4-57.6 128-128 128s-128-57.6-128-128v-64zM512 320m-64 0a64 64 0 1 1 128 0 64 64 0 1 1-128 0ZM512 384c19.2 0 32-12.8 32-32v-192c0-19.2-12.8-32-32-32s-32 12.8-32 32v192c0 19.2 12.8 32 32 32z"  horiz-adv-x="1024" />

    
    <glyph glyph-name="user" unicode="&#58889;" d="M512 352c-140.8 0-256 115.2-256 256s115.2 256 256 256 256-115.2 256-256-115.2-256-256-256z m0 448c-108.8 0-192-83.2-192-192s83.2-192 192-192 192 83.2 192 192-83.2 192-192 192zM896-32c-19.2 0-32 12.8-32 32 0 115.2-44.8 224-115.2 294.4-12.8 12.8-12.8 32 0 44.8 12.8 12.8 32 12.8 44.8 0 89.6-83.2 140.8-211.2 140.8-345.6-6.4-12.8-19.2-25.6-38.4-25.6z m-768 0c-19.2 0-32 12.8-32 32 0 249.6 166.4 416 409.6 416 19.2 0 32-12.8 32-32s-12.8-32-32-32c-211.2 0-345.6-140.8-345.6-352 0-19.2-12.8-32-32-32z"  horiz-adv-x="1024" />

    
    <glyph glyph-name="ManagementCenter" unicode="&#58903;" d="M768 640V832H256v-192H64v-704h896V640h-192zM352 736h320V640h-320V736z m512-704h-704v512h704v-512zM460.8 384H256v-96h204.8V192h96V288H768V384H556.8z"  horiz-adv-x="1024" />

    
    <glyph glyph-name="BasicsInfo" unicode="&#58904;" d="M64 800v-832h896v832H64zM864 64h-704v160H576V320H160V480h704V64z m-704 512V704h704v-128h-704z"  horiz-adv-x="1024" />

    
    <glyph glyph-name="Deliver" unicode="&#58913;" d="M640 864H128v-960h768v704l-256 256zM800 0h-576V768H512v-288h288V0z m-192 576V761.6L793.6 576H608zM320 384h256v-96H320zM320 192h384v-96H320z"  horiz-adv-x="1024" />

    
    <glyph glyph-name="Opening" unicode="&#58914;" d="M704 588.8V832H64v-889.6h896V448l-256 140.8z m-96-550.4h-448V736h448v-697.6z m96 0V480l160-89.6v-352H704zM224 576H320v-128H224zM224 320H320v-128H224zM448 576h96v-128H448zM448 320h96v-128H448z"  horiz-adv-x="1024" />

    
    <glyph glyph-name="SpecialCheckitem" unicode="&#58915;" d="M492.8 332.79999999999995L358.4 467.2l-70.4-64 134.4-134.4 70.4-70.4 268.8 268.8-64 70.4zM1024 435.2h-96V800H563.2V896H467.2v-96H96v-364.8H0v-96h96v-371.2h371.2V-128h96v96h364.8V339.20000000000005H1024V435.2zM832 64H192V704h640v-640z"  horiz-adv-x="1024" />

    
    <glyph glyph-name="SimulateCheckRoom" unicode="&#58916;" d="M512 864l-448-320v-576h896v576l-448 320zM864 64h-704V492.8l352 256 352-256V64zM358.4 435.2l-70.4-64 134.4-134.4 70.4-70.4 64 64 204.8 204.8-64 70.4-211.2-204.8z"  horiz-adv-x="1024" />

    
    <glyph glyph-name="Basic" unicode="&#58926;" d="M64 800v-832h896v832H64zM864 64h-704v160H576V320H160V480h704V64z m-704 512V704h704v-128h-704z"  horiz-adv-x="1024" />

    
    <glyph glyph-name="CustomerManagement" unicode="&#58927;" d="M768 896H256l115.2-339.2L256 128l256-256 256 256-115.2 428.8L768 896zM633.6 800l-64-192H454.4l-64 192h243.2zM512 6.399999999999977l-147.2 153.6L454.4 512h108.8l96-358.4L512 6.399999999999977z"  horiz-adv-x="1024" />

    
    <glyph glyph-name="OwnerAppAdmin" unicode="&#58929;" d="M128 832v-896h768V832H128z m672-800h-576v256h576v-256zM224 384V736h576V384h-576zM460.8 224h96v-128H460.8z"  horiz-adv-x="1024" />

    
    <glyph glyph-name="Operation" unicode="&#58930;" d="M64 800v-832h896v832H64zM864 64h-115.2v192h-96v-192H556.8V384H460.8v-320H364.8V512H268.8v-448H160V704h704v-640z"  horiz-adv-x="1024" />

    
    <glyph glyph-name="Wechat" unicode="&#58931;" d="M64 832v-768h256l192-128 192 128h256V832H64z m800-672h-192L512 51.200000000000045l-160 108.8h-192v576h704v-576zM576 384h128V480H320V384h128z"  horiz-adv-x="1024" />

    
    <glyph glyph-name="module-care" unicode="&#58917;" d="M832 800h-192l-128-64-128 64H192l-192-384 512-512 512 512-192 384zM115.2 435.2L249.6 704h108.8L512 627.2 665.6 704h108.8l134.4-268.8L512 38.39999999999998 115.2 435.2zM307.2 576h96v-256H307.2zM467.2 512h96v-192H467.2zM627.2 448h96v-128H627.2z"  horiz-adv-x="1024" />

    
    <glyph glyph-name="logo" unicode="&#58918;" d="M1074.693069 880.792079c-81.108911 0-167.287129-20.277228-238.257425-65.90099L963.168317 683.089109c147.009901 55.762376 314.29703-10.138614 385.267327-152.079208s25.346535-319.366337-101.386139-405.544554-304.158416-65.90099-405.544555 55.762376l-263.60396 268.673267c-35.485149 30.415842-86.178218 30.415842-121.663366-5.069307s-35.485149-86.178218-5.069307-121.663366l263.60396-273.742574c152.079208-167.287129 390.336634-207.841584 588.039604-96.316832s294.019802 334.574257 238.257426 557.623762S1292.673267 880.792079 1074.693069 880.792079zM1125.386139 449.90099L861.782178 723.643564h-5.069307C684.356436 911.207921 400.475248 936.554455 202.772277 774.336634s-243.326733-451.168317-101.386138-664.079208 420.752475-283.881188 638.732673-157.148515L608.316832 84.910891c-147.009901-55.762376-314.29703 10.138614-385.267327 152.079208s-25.346535 319.366337 101.386139 405.544554 304.158416 65.90099 405.544554-55.762376l263.60396-268.673267c20.277228-25.346535 55.762376-35.485149 86.178218-25.346535 30.415842 10.138614 55.762376 30.415842 60.831683 65.90099 15.207921 35.485149 5.069307 65.90099-15.20792 91.247525zM3229.148515-82.376238l81.108911-20.277227 65.90099 349.782178-81.108911 20.277228-65.90099-349.782179z m-10.138614 897.267327l116.594059-147.009901 55.762377 55.762376L3274.772277 870.653465l-55.762376-55.762376zM4156.831683 880.792079H3578.930693c-106.455446 0-106.455446-111.524752-106.455445-111.524752v-871.920792h81.10891v861.782178s0 40.554455 40.554456 40.554455H4156.831683V880.792079z m1875.643565 0h-81.108911V743.920792h81.108911V880.792079zM2879.366337 880.792079h-278.811882c-106.455446 0-106.455446-111.524752-106.455445-111.524752v-871.920792h81.108911v304.158415h304.158416V287.683168h-304.158416V515.80198h304.158416V601.980198h-304.158416v152.079208s0 40.554455 40.554455 40.554455h253.465347c40.554455 0 40.554455-40.554455 40.554455-40.554455v-856.712871H2990.891089V769.267327c-5.069307 0-5.069307 111.524752-111.524752 111.524752z m-588.039604-45.623762H2129.108911c-106.455446 0-106.455446-111.524752-106.455446-111.524753v-674.217821s0-111.524752 106.455446-111.524753h162.217822c106.455446 0 106.455446 111.524752 106.455445 111.524753V723.643564c5.069307 0 5.069307 111.524752-106.455445 111.524753z m25.346534-390.336634v-380.19802c0-40.554455-40.554455-40.554455-40.554455-40.554455h-136.871287c-40.554455 0-40.554455 40.554455-40.554456 40.554455v283.881188h192.633664V434.693069h-192.633664V713.50495s0 40.554455 40.554456 40.554456h136.871287c40.554455 0 40.554455-40.554455 40.554455-40.554456v-268.673267z m2950.336634 380.19802H4466.059406V743.920792h800.950495V825.029703zM3634.693069-67.168317l60.831683-35.485148c76.039604 126.732673 86.178218 299.089109 86.178218 299.089109l-76.039604 15.20792s-25.346535-187.564356-70.970297-278.811881zM5682.693069 860.514851l-76.039604 20.277228-60.831683-223.049505h334.574258V738.851485h-233.188119l35.485148 121.663366z m897.267327-157.148514V789.544554h-299.089109l15.207921 76.039604-81.108911 15.207921-20.277228-91.247525h-76.039604v-81.10891h60.831684l-60.831684-319.366337h212.910891v-136.871287h-212.910891v-81.108911h212.910891v-147.009901h81.108911v147.009901h172.356436v81.108911h-172.356436V389.069307h172.356436V470.178218h-172.356436V612.118812h-81.108911v-147.009901h-106.455445l45.623762 238.257426h309.227723z m-1034.138614-243.326733h106.455446v-136.871287h-106.455446V236.990099h106.455446v-238.257426s0-111.524752 106.455445-111.524752h116.59406v81.108911h-101.386139c-40.554455 0-40.554455 40.554455-40.554455 40.554455V236.990099h141.940594v81.108911h-141.940594V460.039604h141.940594V546.217822h-334.574258v-86.178218z m481.584159-446.09901V657.742574h-81.108911v-653.940594s0-111.524752 106.455445-111.524752h522.138614v81.108911h-512c-35.485149 0-35.485149 40.554455-35.485148 40.554455zM4156.831683 348.514851V612.118812S4156.831683 693.227723 4075.722772 693.227723h-131.80198V774.336634h-81.108911v-76.039604h-152.079208c-81.108911 0-81.108911-81.108911-81.108911-81.108911v-263.603961s0-81.108911 81.108911-81.10891h152.079208v-370.059406h81.108911v370.059406h131.80198c81.108911-5.069307 81.108911 76.039604 81.108911 76.039603z m-96.316832 0h-324.435643c-5.069307 0-10.138614 0-15.207921 5.069307-5.069307 5.069307-5.069307 10.138614-5.069307 15.207921V439.762376H4055.445545V525.940594h-339.643565V591.841584c0 5.069307 0 10.138614 5.069307 15.207921 5.069307 5.069307 10.138614 5.069307 15.207921 5.069307h324.435643c5.069307 0 10.138614 0 15.207921-5.069307s5.069307-10.138614 5.069307-15.207921v-223.049505c0-5.069307 0-10.138614-5.069307-15.207921-5.069307 0-10.138614-5.069307-15.207921-5.069307z m354.851486 70.970298h136.871287l-50.69307-354.851486s-35.485149-167.287129 152.079208-167.287128h456.237624c157.148515 0 157.148515 167.287129 157.148515 167.287128v217.980198h-81.108911v-217.980198s0-81.108911-81.108911-81.108911h-451.168317c-81.108911 0-70.970297 86.178218-70.970297 86.178218l50.69307 354.851485h679.287128V500.594059H4415.366337v-81.10891z m-364.990099-223.049505l40.554455-299.089109 81.108911 15.20792-40.554455 299.089109-81.108911-15.20792zM3219.009901 536.079208l116.594059-147.009901 55.762377 55.762376L3274.772277 591.841584l-55.762376-55.762376z"  horiz-adv-x="6610" />

    
    <glyph glyph-name="Others" unicode="&#58932;" d="M64 800v-832h896v832H64zM864 64h-704V704h704v-640zM256 435.2h128v-96H256zM448 435.2h128v-96H448zM640 435.2h128v-96h-128z"  horiz-adv-x="1024" />

    
    <glyph glyph-name="IndexSetting" unicode="&#58925;" d="M768 640V832H256v-192H64v-704h896V640h-192zM352 736h320V640h-320V736z m512-704h-704v512h704v-512zM460.8 384H256v-96h204.8V192h96V288H768V384H556.8z"  horiz-adv-x="1024" />

    
    <glyph glyph-name="ProjectInspect" unicode="&#58933;" d="M704 588.8V832H64v-889.6h896V448l-256 140.8z m-96-550.4h-448V736h448v-697.6z m96 0V480l160-89.6v-352H704zM224 576H320v-128H224zM224 320H320v-128H224zM448 576h96v-128H448zM448 320h96v-128H448z"  horiz-adv-x="1024" />

    
    <glyph glyph-name="DocumentManage" unicode="&#58934;" d="M448 800H64v-832h896v640H576l-128 192zM864 64h-704v96h704V64z m0 192h-704V704h236.8l128-192h339.2v-256zM576 768l64-96h320V768z"  horiz-adv-x="1024" />

    
    <glyph glyph-name="Schedule" unicode="&#58935;" d="M736 704V832H640v-128H384V832H288v-128H64v-768h896V704h-224z m128-672h-704v576h128V512H384V608h256V512h96V608h128v-576zM492.8 236.79999999999995L358.4 371.20000000000005l-70.4-64 204.8-204.8 64 64 204.8 204.8-64 70.4z"  horiz-adv-x="1024" />

    
    <glyph glyph-name="SpecialInspectMenu" unicode="&#58937;" d="M492.8 332.79999999999995L358.4 467.2l-70.4-64 204.8-204.8 64 64 204.8 204.8-64 70.4zM1024 428.8h-96V800H563.2V896H467.2v-96H96v-364.8H0v-96h96v-371.2h371.2V-128h96v96h364.8V332.79999999999995H1024V428.8zM832 64H192V704h640v-640z"  horiz-adv-x="1024" />

    
    <glyph glyph-name="Statistical" unicode="&#58938;" d="M64 800v-832h896v832H64zM864 64h-115.2v192h-96v-192H556.8V384H460.8v-320H364.8V512H268.8v-448H160V704h704v-640z"  horiz-adv-x="1024" />

    
    <glyph glyph-name="StatisticalReports" unicode="&#58923;" d="M64 800v-832h896v832H64zM864 64h-115.2v192h-96v-192H556.8V384H460.8v-320H364.8V512H268.8v-448H160V704h704v-640z"  horiz-adv-x="1024" />

    
    <glyph glyph-name="DailyService" unicode="&#58936;" d="M768 640V832H256v-192H64v-704h896V640h-192zM352 736h320V640h-320V736z m512-704h-704v512h704v-512zM460.8 384H256v-96h204.8V192h96V288H768V384H556.8z"  horiz-adv-x="1024" />

    
    <glyph glyph-name="CallCenter" unicode="&#58939;" d="M128 832v-896h768V832H128z m672-800h-576v256h576v-256zM224 384V736h576V384h-576zM460.8 224h96v-128H460.8z"  horiz-adv-x="1024" />

    
    <glyph glyph-name="ServiceOnline" unicode="&#58940;" d="M960 96v704H64v-704h396.8V0H320v-96h384V0H556.8v96H960zM160 192V704h704v-512h-704zM492.8 262.4l64 64 204.8 204.8-64 70.4-204.8-204.8-134.4 134.4-70.4-64 140.8-134.4z"  horiz-adv-x="1024" />

    
    <glyph glyph-name="RiskcontrolManager" unicode="&#58941;" d="M512 864l-448-128 89.6-460.8 38.4-179.2 320-192 320 192 128 640-448 128z m236.8-710.4L512 12.799999999999955l-236.8 140.8v6.4l70.4 128 128-51.2 128 192 70.4-57.6V576l-192-44.8 70.4-64L448 358.4 313.6 428.8 236.8 352l-64 313.6L512 761.6l339.2-96-102.4-512z"  horiz-adv-x="1024" />

    
    <glyph glyph-name="kehudangan" unicode="&#58942;" d="M768 896H256l115.2-339.2L256 128l256-256 256 256-115.2 428.8L768 896zM633.6 800l-64-192H454.4l-64 192h243.2zM512 6.4l-147.2 153.6L454.4 512h108.8l96-358.4L512 6.4z"  horiz-adv-x="1024" />

    
    <glyph glyph-name="CustomerCare" unicode="&#58943;" d="M832 800h-192l-128-64-128 64H192l-192-384 512-512 512 512-192 384zM115.2 435.2L249.6 704h108.8L512 627.2 665.6 704h108.8l134.4-268.8L512 38.39999999999998 115.2 435.2zM307.2 576h96v-256H307.2zM467.2 512h96v-192H467.2zM627.2 448h96v-128H627.2z"  horiz-adv-x="1024" />

    


  </font>
</defs>
</svg>
